inDegrees=no
num_controls=7
num_derivatives=13
num_iterations=44
num_multipliers=7
num_parameters=0
num_slacks=7
num_states=26
objective=0.426161
objective_accelerations=0.059742
objective_balance=0.001196
objective_effort=0.015579
objective_height=0.343686
objective_ligament=0.005958
solver_duration=646.981107
status=Solve_Succeeded
success=true
DataType=double
version=3
OpenSimVersion=4.5
endheader
time	/jointset/ground_pelvis/pelvis_tilt/value	/jointset/ground_pelvis/pelvis_tx/value	/jointset/ground_pelvis/pelvis_ty/value	/jointset/hip_l/hip_flexion_l/value	/jointset/hip_l/hip_adduction_l/value	/jointset/hip_l/hip_rotation_l/value	/jointset/back/lumbar_extension/value	/jointset/patellofemoral_l/patellar_flexion_l/value	/jointset/knee_l/knee_flexion_l/value	/jointset/knee_l/knee_adduction_l/value	/jointset/knee_l/knee_rotation_l/value	/jointset/ankle_l/ankle_angle_l/value	/jointset/subtalar_l/subtalar_angle_l/value	/jointset/ground_pelvis/pelvis_tilt/speed	/jointset/ground_pelvis/pelvis_tx/speed	/jointset/ground_pelvis/pelvis_ty/speed	/jointset/hip_l/hip_flexion_l/speed	/jointset/hip_l/hip_adduction_l/speed	/jointset/hip_l/hip_rotation_l/speed	/jointset/back/lumbar_extension/speed	/jointset/patellofemoral_l/patellar_flexion_l/speed	/jointset/knee_l/knee_flexion_l/speed	/jointset/knee_l/knee_adduction_l/speed	/jointset/knee_l/knee_rotation_l/speed	/jointset/ankle_l/ankle_angle_l/speed	/jointset/subtalar_l/subtalar_angle_l/speed	/forceset/tau_hip_flexion_l	/forceset/tau_hip_adduction_l	/forceset/tau_hip_rotation_l	/forceset/tau_knee_flexion_l	/forceset/tau_ankle_angle_l	/forceset/tau_subtalar_angle_l	/forceset/tau_lumbar_extension	lambda_cid13_p0	lambda_cid13_p1	lambda_cid13_p2	lambda_cid13_p3	lambda_cid13_p4	lambda_cid13_p5	lambda_cid14_p0	/jointset/ground_pelvis/pelvis_tilt/accel	/jointset/ground_pelvis/pelvis_tx/accel	/jointset/ground_pelvis/pelvis_ty/accel	/jointset/hip_l/hip_flexion_l/accel	/jointset/hip_l/hip_adduction_l/accel	/jointset/hip_l/hip_rotation_l/accel	/jointset/back/lumbar_extension/accel	/jointset/patellofemoral_l/patellar_flexion_l/accel	/jointset/knee_l/knee_flexion_l/accel	/jointset/knee_l/knee_adduction_l/accel	/jointset/knee_l/knee_rotation_l/accel	/jointset/ankle_l/ankle_angle_l/accel	/jointset/subtalar_l/subtalar_angle_l/accel	gamma_cid13_p0	gamma_cid13_p1	gamma_cid13_p2	gamma_cid13_p3	gamma_cid13_p4	gamma_cid13_p5	gamma_cid14_p0
1	-0.4579202267689318	-0.004245778929516186	0.5864807868263932	1.727626784838141	-0.3451550107069554	0.1372305763425536	-0.4362128223404966	1.528180888102329	1.528180888102305	0.06817651829368129	-0.1743368301563891	0.4350565228886215	0.2516388673438455	-0.1454439216691964	8.520251283434643e-05	0.03021856112318363	0.03686551195976022	0.000279106273310599	-0.05429459049225073	-0.001957786155014871	-0.1436430694731117	-0.1436430694731194	-0.002490335341089578	0.0001753419595932309	-0.04749871786886634	-0.02836888908218954	-0.2416290798748557	0.08089586403198079	-0.01427575808347215	-0.2942564922085913	-0.01679075419181685	-0.01452660619783466	0.2099899186889469	-41.52009365940022	24.22915141032432	-16.30909381775655	4.79804545201937	-544.0831989456238	-31.0359871747345	-0.02364488469009582	1.43955686245464	0.2247993864865117	2.044998873101319	-6.690535702220848	-0.2415945716640778	-1.548485272922021	-0.01113667010724683	-5.634731939875935	-5.63473193987595	-0.9124227304689658	-0.03753784235424196	-0.8739679571327358	-0.9142271031289564	-1.483613134444893e-09	-1.253213683356207e-07	-7.120374261988957e-08	-9.788777484597802e-09	-5.49953392340274e-09	-1.754117513801963e-07	7.97749357164758e-09
1.01	-0.4593032940513705	-0.004233664978715288	0.5868850341629658	1.727661830051203	-0.3451637431027884	0.1366124607602905	-0.4362320809187432	1.526463082682557	1.526463082682556	0.0681045823190987	-0.1743355098801889	0.4345378337451876	0.2513103877640994	-0.1311502237498767	0.002345942853933351	0.05062431239281167	-0.02986168614313491	-0.002021391589200414	-0.06932358983572463	-0.001896944596074854	-0.1999154632783263	-0.1999154632783237	-0.01189167340153342	8.744955048418211e-05	-0.05624804907297916	-0.03731965654960856	-0.2420922856785455	0.08085241872431086	-0.01430193251812919	-0.2933121141784156	-0.01715649159207539	-0.01446027710599962	0.2102432047388989	-41.59178365614537	24.15738343075318	-16.23424224337439	4.695847537977843	-543.9375940873839	-30.97604199463771	-0.02366030749970559	1.427173452219688	0.2279609674528094	2.037372179763831	-6.664593898728809	-0.2236318235845886	-1.479370675511811	0.01424230457033515	-5.623112589801988	-5.623112589800459	-0.9532210750640926	0.005363999987700042	-0.8767641579237854	-0.8843571454139473	-1.303480608595487e-09	-1.674949266103752e-07	-1.022677393002147e-07	-1.827190601371857e-08	-9.97660660437034e-09	-2.326179536142736e-07	1.081831043349695e-08
1.02	-0.4605428449155111	-0.004198693702597142	0.5874931407974087	1.727029446876356	-0.3451953513632537	0.1358442025024988	-0.4362508215342258	1.524182629426941	1.524182629426966	0.06793878661763839	-0.1743351127400428	0.4339313815985311	0.2508926293943067	-0.116740638008587	0.004656667576284106	0.07099042069727202	-0.09662016562222252	-0.004296066653311753	-0.08432312559726993	-0.001854193610091578	-0.2561726366418527	-0.2561726366418424	-0.02126228071125426	-9.285251548611222e-06	-0.06505131851202306	-0.0462246470916523	-0.2425554914822125	0.08080897341664518	-0.01432810695286269	-0.292367736148244	-0.01752222899233734	-0.01439394801415827	0.2104964907888726	-41.66554362440781	24.08272142867918	-16.15520932472113	4.586351178928036	-543.8990764284566	-30.92125264719682	-0.02367800574411743	1.46273442684864	0.2347962627368838	2.037070280067787	-6.696791977459368	-0.2364300119841428	-1.542592556536316	-0.0147547846980506	-5.6316878515383	-5.631687851538852	-0.9062765803243484	-0.03930632093897812	-0.8847556041189067	-0.9050717180538758	-1.279737839850399e-09	-2.079850458459813e-07	-1.307391401974858e-07	-2.6325284882418e-08	-1.431763854763713e-08	-2.847929146507817e-07	1.306751677456669e-08
1.03	-0.4616377784469962	-0.004140355712923333	0.5883046425943953	1.725729534173993	-0.345249525037998	0.1349261639985358	-0.4362691480009213	1.521339677543737	1.521339677543575	0.06767943885510652	-0.1743356839253928	0.4332364743380665	0.2503860610425436	-0.1022322919144315	0.007020265649929525	0.0912967112676565	-0.163347326890665	-0.006529439780897668	-0.09927075183507791	-0.001806869733039221	-0.3124157840752835	-0.3124157840752775	-0.03060476745014299	-0.0001020667283405932	-0.07395416257520598	-0.05508061174058002	-0.2428127693204257	0.08082168283241435	-0.01431906605840627	-0.2912484926544432	-0.01785719987784375	-0.01431947973317572	0.2106205387391857	-41.70978826847541	23.9918397870553	-16.0650047771825	4.476063546792044	-543.6101299545463	-30.8449116440905	-0.02370397097432682	1.446951217873459	0.2385349498141752	2.025420572923484	-6.65842104106213	-0.2153804834870421	-1.468779914256224	0.01511047490476342	-5.620337876442696	-5.620337876442993	-0.9478739471979579	0.006120656788444694	-0.896664526677566	-0.8745384129937257	-1.257590884953314e-09	-2.484579871322083e-07	-1.591840860357461e-07	-3.437427855050088e-08	-1.865728232011106e-08	-3.369165364913963e-07	1.531068627358765e-08
1.04	-0.4625872152141068	-0.004058103068485929	0.5893188097225657	1.723762801291046	-0.345325750348085	0.133859062780823	-0.4362868743286158	1.517934352248759	1.517934352248408	0.06732673837984125	-0.1743371059819413	0.4324518154931128	0.2497911971293553	-0.08764128513329306	0.009439598529003208	0.1115234869340432	-0.2299842017401225	-0.00870639372213527	-0.1141356683470145	-0.001734165816061902	-0.3686473189966047	-0.368647318996601	-0.03993282325010144	-0.0001794594916239983	-0.08300163540877391	-0.06388375937676989	-0.2430700471585848	0.08083439224819541	-0.01431002516406287	-0.2901292491606478	-0.01819217076335654	-0.01424501145217548	0.2107445866895552	-41.75634195097772	23.8981068624886	-15.97062670124736	4.358858148247928	-543.4298384261251	-30.77471145439959	-0.02373232390710205	1.479266564245211	0.2459432238225566	2.021167299268233	-6.678734693662393	-0.2251461747144783	-1.526050611362052	-0.009678776712322552	-5.629365349116384	-5.629365349116542	-0.9033903925382745	-0.03622857823725099	-0.9136813581958655	-0.8945083155062894	-1.494631573115557e-09	-2.873866193740508e-07	-1.874751455025673e-07	-4.185521297816332e-08	-2.2581344008692e-08	-3.831013941116264e-07	1.713428536909173e-08
1.05	-0.4633903314817502	-0.003951316046831386	0.5905347659210115	1.721130287293559	-0.3454234398399005	0.1326436571025436	-0.4363035190109081	1.513966870887195	1.513966870887084	0.06688098505985882	-0.1743392191491318	0.4315759501298416	0.2491086226987514	-0.07296902349421115	0.01193332180151498	0.131646490642395	-0.2964901368481122	-0.01081976962758853	-0.1289337885555661	-0.001567356237654639	-0.4248371633320598	-0.4248371633320447	-0.0492049709735904	-0.0002391535103186649	-0.09219620490080359	-0.07261656604472252	-0.2431883911543926	0.08087610608963422	-0.0142684747629184	-0.2888027791504978	-0.01845102667120884	-0.01416048830738842	0.2108145888949906	-41.75610251613598	23.78421155072049	-15.86435069003863	4.173690631508745	-543.0096376611747	-30.68362342916383	-0.02376623095127615	1.463147245905814	0.2534043398864711	2.00467225173495	-6.632254368030221	-0.2026366871035868	-1.454948881442668	0.03397298822435538	-5.612029285399442	-5.612029285397661	-0.9372170896925368	0.009699180561991991	-0.9260748975442303	-0.8604047507822621	-1.739771875123402e-09	-3.262669919582561e-07	-2.15761396020281e-07	-4.931839555456264e-08	-2.649241875715129e-08	-4.291006653499695e-07	1.894477288948591e-08
1.06	-0.4640463368765679	-0.003819128300267615	0.5919513132255642	1.717833567655255	-0.3455419037684988	0.1312806189910093	-0.4363176731648054	1.509437844020348	1.509437844020482	0.0663428922371417	-0.1743418214576594	0.4306073930410804	0.2483391726197996	-0.05821911056848581	0.01451974351084894	0.1516417081553985	-0.3628253299026256	-0.01286128107875721	-0.1436621549977584	-0.001236060134961776	-0.480956420053091	-0.4809564200530636	-0.05840072379461071	-0.0002772877591127319	-0.1015399805063428	-0.08125888904637762	-0.2433067351502333	0.08091781993107003	-0.01422692436181153	-0.2874763091403472	-0.01870988257905467	-0.0140759651626014	0.2108845911003927	-41.75850190992436	23.6675092855486	-15.75389290406552	3.982360876677272	-542.7001122507194	-30.6000303894155	-0.02380273149116541	1.494796821573874	0.2644829111870107	1.99561006019858	-6.644586282967168	-0.2107732838575605	-1.512099858090239	0.02321852814559315	-5.615247826231617	-5.615247826231603	-0.8881114120445214	-0.03191662425711852	-0.9435225808977444	-0.8764115822467659	-2.058730335568458e-09	-3.634315955906401e-07	-2.367809171205903e-07	-5.689969673658091e-08	-3.002534556773756e-08	-4.648808243882027e-07	1.907051979126676e-08
